<svg width="142" height="142" viewBox="0 0 142 142" fill="none" xmlns="http://www.w3.org/2000/svg">
<g clip-path="url(#clip0_5766_5506)">
<path d="M0 8C0 3.58172 3.58172 0 8 0H32C36.4183 0 40 3.58172 40 8V32C40 36.4183 36.4183 40 32 40H8C3.58172 40 0 36.4183 0 32V8Z" fill="#0078D4"/>
</g>
<path d="M31.4883 23.947V16.7888H32.6162V20.5876L33.9297 18.7614H35.3164L33.8613 20.6559L35.4189 23.947H34.208L33.1338 21.6179L32.6162 22.2868V23.947H31.4883Z" fill="white"/>
<path d="M26.2539 21.2809C26.2539 20.7731 26.3548 20.3109 26.5566 19.8942C26.7585 19.4776 27.0221 19.1651 27.3477 18.9567C27.6732 18.7484 28.0394 18.6442 28.4463 18.6442C29.1299 18.6442 29.667 18.9128 30.0576 19.4499C30.4482 19.9837 30.6436 20.6087 30.6436 21.3249C30.6436 21.8587 30.541 22.3405 30.3359 22.7702C30.1341 23.1999 29.8672 23.5238 29.5352 23.7419C29.2064 23.9567 28.8451 24.0641 28.4512 24.0641C27.8197 24.0641 27.2956 23.8233 26.8789 23.3415C26.4622 22.8597 26.2539 22.1729 26.2539 21.2809ZM27.4062 21.3542C27.4062 21.8783 27.5088 22.2754 27.7139 22.5456C27.9189 22.8125 28.1663 22.946 28.4561 22.946C28.7393 22.946 28.9818 22.8109 29.1836 22.5407C29.3854 22.2705 29.4863 21.8718 29.4863 21.3444C29.4863 20.8301 29.3838 20.4378 29.1787 20.1677C28.9736 19.8975 28.7279 19.7624 28.4414 19.7624C28.1582 19.7624 27.9141 19.8975 27.709 20.1677C27.5072 20.4378 27.4062 20.8334 27.4062 21.3542Z" fill="white"/>
<path d="M21.2461 21.2809C21.2461 20.7731 21.347 20.3109 21.5488 19.8942C21.7507 19.4776 22.0143 19.1651 22.3398 18.9567C22.6654 18.7484 23.0316 18.6442 23.4385 18.6442C24.1221 18.6442 24.6592 18.9128 25.0498 19.4499C25.4404 19.9837 25.6357 20.6087 25.6357 21.3249C25.6357 21.8587 25.5332 22.3405 25.3281 22.7702C25.1263 23.1999 24.8594 23.5238 24.5273 23.7419C24.1986 23.9567 23.8372 24.0641 23.4434 24.0641C22.8118 24.0641 22.2878 23.8233 21.8711 23.3415C21.4544 22.8597 21.2461 22.1729 21.2461 21.2809ZM22.3984 21.3542C22.3984 21.8783 22.501 22.2754 22.7061 22.5456C22.9111 22.8125 23.1585 22.946 23.4482 22.946C23.7314 22.946 23.974 22.8109 24.1758 22.5407C24.3776 22.2705 24.4785 21.8718 24.4785 21.3444C24.4785 20.8301 24.376 20.4378 24.1709 20.1677C23.9658 19.8975 23.7201 19.7624 23.4336 19.7624C23.1504 19.7624 22.9062 19.8975 22.7012 20.1677C22.4993 20.4378 22.3984 20.8334 22.3984 21.3542Z" fill="white"/>
<path d="M19.2227 23.947V16.7888H20.3506V23.947H19.2227Z" fill="white"/>
<path d="M18.4316 18.7614V19.8552H17.665V21.945C17.665 22.3975 17.6764 22.6595 17.6992 22.7311C17.7448 22.8613 17.8376 22.9265 17.9775 22.9265C18.0817 22.9265 18.2314 22.8825 18.4268 22.7946L18.5244 23.8591C18.264 23.9958 17.9694 24.0641 17.6406 24.0641C17.3542 24.0641 17.1247 23.9958 16.9521 23.8591C16.7796 23.7224 16.6641 23.5254 16.6055 23.2682C16.5599 23.0794 16.5371 22.6953 16.5371 22.1159V19.8552H16.0195V18.7614H16.5371V17.7311L17.665 16.9304V18.7614H18.4316Z" fill="white"/>
<path d="M14.2715 23.947V23.1706C14.1152 23.4505 13.9102 23.6703 13.6562 23.8298C13.4023 23.986 13.137 24.0641 12.8604 24.0641C12.5804 24.0641 12.3298 23.9909 12.1084 23.8444C11.887 23.6979 11.721 23.4896 11.6104 23.2194C11.5029 22.9492 11.4492 22.557 11.4492 22.0427V18.7614H12.5771V21.1442C12.5771 21.8246 12.5934 22.2575 12.626 22.4431C12.6618 22.6253 12.7383 22.7669 12.8555 22.8679C12.9727 22.9688 13.1143 23.0192 13.2803 23.0192C13.4691 23.0192 13.6432 22.9541 13.8027 22.8239C13.9622 22.6904 14.0664 22.5212 14.1152 22.3161C14.1673 22.1078 14.1934 21.652 14.1934 20.9489V18.7614H15.3164V23.947H14.2715Z" fill="white"/>
<path d="M4.86328 20.4118C4.86328 19.5589 4.98861 18.8574 5.23926 18.3073C5.49316 17.7539 5.82357 17.3421 6.23047 17.072C6.63737 16.8018 7.13053 16.6667 7.70996 16.6667C8.5498 16.6667 9.2334 16.9873 9.76074 17.6286C10.2913 18.2699 10.5566 19.183 10.5566 20.3679C10.5566 21.5658 10.2767 22.5016 9.7168 23.1755C9.22526 23.7712 8.55794 24.069 7.71484 24.069C6.86523 24.069 6.19466 23.7744 5.70312 23.1852C5.14323 22.5114 4.86328 21.5869 4.86328 20.4118ZM6.08398 20.363C6.08398 21.1865 6.24023 21.805 6.55273 22.2184C6.86523 22.6286 7.2526 22.8337 7.71484 22.8337C8.18034 22.8337 8.56608 22.6302 8.87207 22.2233C9.17806 21.8132 9.33105 21.1849 9.33105 20.3386C9.33105 19.5085 9.18132 18.8949 8.88184 18.4977C8.58561 18.1006 8.19661 17.902 7.71484 17.902C7.23307 17.902 6.84082 18.1022 6.53809 18.5026C6.23535 18.903 6.08398 19.5231 6.08398 20.363Z" fill="white"/>
<defs>
<clipPath id="clip0_5766_5506">
<path d="M0 8C0 3.58172 3.58172 0 8 0H32C36.4183 0 40 3.58172 40 8V32C40 36.4183 36.4183 40 32 40H8C3.58172 40 0 36.4183 0 32V8Z" fill="white"/>
</clipPath>
</defs>
</svg>
