<svg width="40" height="40" viewBox="0 0 40 40" fill="none" xmlns="http://www.w3.org/2000/svg">
<g clip-path="url(#clip0_6792_28391)">
<path d="M0 8C0 3.58172 3.58172 0 8 0H32C36.4183 0 40 3.58172 40 8V32C40 36.4183 36.4183 40 32 40H8C3.58172 40 0 36.4183 0 32V8Z" fill="#6264A7"/>
</g>
<path d="M32.7832 22.3356L33.8855 22.1304C33.9809 22.6616 34.2768 22.9273 34.773 22.9273C35.0371 22.9273 35.2343 22.8764 35.3647 22.7746C35.4952 22.6728 35.5604 22.5407 35.5604 22.3785C35.5604 22.2672 35.5318 22.1797 35.4745 22.1161C35.414 22.0524 35.2948 21.9968 35.1166 21.949C34.2131 21.7104 33.6389 21.483 33.394 21.2667C33.0886 20.9963 32.9359 20.6257 32.9359 20.1548C32.9359 19.684 33.0854 19.3071 33.3844 19.0239C33.6835 18.7408 34.1177 18.5992 34.6871 18.5992C35.2311 18.5992 35.6447 18.7058 35.9278 18.919C36.2109 19.1289 36.4098 19.4693 36.5243 19.9401L35.4888 20.1739C35.3966 19.7667 35.1357 19.5631 34.7062 19.5631C34.4358 19.5631 34.2434 19.6029 34.1288 19.6824C34.0143 19.7588 33.9571 19.859 33.9571 19.9831C33.9571 20.0944 34.0096 20.1867 34.1145 20.2598C34.2195 20.3362 34.5456 20.4507 35.0927 20.6034C35.7067 20.7752 36.1235 20.9835 36.343 21.2285C36.5593 21.4735 36.6674 21.7995 36.6674 22.2067C36.6674 22.6966 36.4988 23.1006 36.1616 23.4188C35.8276 23.7369 35.3647 23.8959 34.773 23.8959C34.2354 23.8959 33.7964 23.7639 33.456 23.4999C33.1156 23.2327 32.8914 22.8445 32.7832 22.3356Z" fill="white"/>
<path d="M26.6387 18.7138H27.6503V19.4057C27.8316 19.1353 28.0304 18.9333 28.2468 18.7997C28.4631 18.666 28.6969 18.5992 28.9482 18.5992C29.2154 18.5992 29.4461 18.666 29.6401 18.7997C29.8374 18.9333 29.998 19.1353 30.1221 19.4057C30.3066 19.1353 30.5038 18.9333 30.7138 18.7997C30.9269 18.666 31.1528 18.5992 31.3914 18.5992C31.6745 18.5992 31.9179 18.6676 32.1215 18.8044C32.3282 18.938 32.4841 19.1305 32.5891 19.3818C32.6973 19.6331 32.7513 20.0196 32.7513 20.5414V23.7814H31.649V20.8849C31.649 20.3791 31.6045 20.0435 31.5154 19.8781C31.4264 19.7095 31.2768 19.6252 31.0669 19.6252C30.8219 19.6252 30.6247 19.7429 30.4752 19.9783C30.3257 20.2105 30.2509 20.667 30.2509 21.3478V23.7814H29.1486V21.0042C29.1486 20.4539 29.1184 20.0992 29.058 19.9401C28.9784 19.7302 28.8178 19.6252 28.576 19.6252C28.4138 19.6252 28.2643 19.6793 28.1275 19.7874C27.9907 19.8956 27.8921 20.0546 27.8316 20.2646C27.7712 20.4714 27.741 20.8229 27.741 21.3192V23.7814H26.6387V18.7138Z" fill="white"/>
<path d="M23.772 20.2598L22.7747 20.0403C22.8956 19.5282 23.0944 19.1607 23.3712 18.938C23.6511 18.7122 24.0519 18.5992 24.5736 18.5992C25.0381 18.5992 25.3928 18.6645 25.6378 18.7949C25.8827 18.9253 26.0577 19.1035 26.1626 19.3293C26.2676 19.552 26.3201 19.9592 26.3201 20.5509L26.3106 22.1161C26.3106 22.5551 26.3281 22.8827 26.3631 23.099C26.3981 23.3122 26.4633 23.5396 26.5587 23.7814H25.4707L25.3276 23.2279C25.1399 23.4506 24.9379 23.6176 24.7216 23.7289C24.5084 23.8403 24.281 23.8959 24.0392 23.8959C23.6352 23.8959 23.3043 23.7607 23.0467 23.4903C22.789 23.2167 22.6602 22.8541 22.6602 22.4024C22.6602 22.1161 22.7126 21.8663 22.8176 21.6532C22.9226 21.44 23.0705 21.2699 23.2614 21.1426C23.4523 21.0154 23.7577 20.9024 24.1776 20.8038C24.6866 20.6861 25.0413 20.5764 25.2417 20.4746C25.2417 20.1946 25.221 20.0117 25.1797 19.9258C25.1415 19.8367 25.0683 19.7652 24.9602 19.7111C24.8552 19.6538 24.7057 19.6252 24.5116 19.6252C24.3144 19.6252 24.1585 19.6697 24.044 19.7588C23.9326 19.8479 23.842 20.0149 23.772 20.2598ZM25.2417 21.3478C25.1017 21.4051 24.8838 21.4719 24.588 21.5482C24.2476 21.6373 24.0249 21.7359 23.9199 21.8441C23.8149 21.9522 23.7624 22.0922 23.7624 22.264C23.7624 22.458 23.8197 22.6219 23.9342 22.7555C24.0519 22.8859 24.1983 22.9511 24.3732 22.9511C24.5291 22.9511 24.6834 22.8986 24.8361 22.7936C24.9888 22.6855 25.0938 22.5582 25.151 22.4119C25.2115 22.2656 25.2417 21.9999 25.2417 21.615V21.3478Z" fill="white"/>
<path d="M21.5888 22.1685L22.6816 22.3928C22.5352 22.9018 22.3078 23.2804 21.9992 23.5285C21.6906 23.7735 21.3153 23.8959 20.8731 23.8959C20.2591 23.8959 19.7851 23.6907 19.4511 23.2804C19.0566 22.8032 18.8594 22.1351 18.8594 21.2762C18.8594 20.43 19.0582 19.7524 19.4558 19.2434C19.7931 18.814 20.2289 18.5992 20.7633 18.5992C21.3582 18.5992 21.8242 18.8187 22.1615 19.2578C22.5496 19.7604 22.7436 20.5016 22.7436 21.4814L22.7388 21.6341H19.9855C19.9919 22.0349 20.081 22.3451 20.2527 22.5646C20.4277 22.7841 20.6377 22.8939 20.8826 22.8939C21.2357 22.8939 21.4711 22.6521 21.5888 22.1685ZM21.6509 20.8134C21.6413 20.4189 21.557 20.123 21.398 19.9258C21.2389 19.7254 21.0496 19.6252 20.8301 19.6252C20.5979 19.6252 20.4023 19.7286 20.2432 19.9353C20.081 20.1453 20.0014 20.438 20.0046 20.8134H21.6509Z" fill="white"/>
<path d="M16.8481 23.7813V17.9693H15.1445V16.7859H19.7016V17.9693H18.0028V23.7813H16.8481Z" fill="white"/>
<path d="M9.05469 21.5052L10.1856 21.3716C10.3128 22.2655 10.7296 22.7125 11.4358 22.7125C11.7857 22.7125 12.0609 22.6218 12.2613 22.4405C12.4617 22.256 12.562 22.0285 12.562 21.7581C12.562 21.5991 12.527 21.4639 12.457 21.3525C12.387 21.2412 12.2804 21.1505 12.1373 21.0805C11.9941 21.0074 11.6474 20.8865 11.097 20.7179C10.6039 20.5684 10.2429 20.4061 10.0138 20.2312C9.78477 20.0562 9.60185 19.8271 9.46506 19.544C9.33145 19.2577 9.26465 18.9507 9.26465 18.6231C9.26465 18.2413 9.35054 17.8977 9.52232 17.5924C9.69729 17.287 9.93747 17.0563 10.2429 16.9004C10.5483 16.7446 10.9252 16.6666 11.3738 16.6666C12.0482 16.6666 12.5747 16.8495 12.9532 17.2154C13.3318 17.5812 13.5322 18.1045 13.5545 18.7853L12.3949 18.8473C12.344 18.472 12.2343 18.2095 12.0657 18.06C11.8971 17.9105 11.6569 17.8357 11.3451 17.8357C11.0334 17.8357 10.7932 17.9009 10.6246 18.0314C10.456 18.1618 10.3717 18.324 10.3717 18.5181C10.3717 18.709 10.448 18.8696 10.6007 19C10.7534 19.1305 11.105 19.2736 11.6553 19.4295C12.2375 19.5981 12.6574 19.7762 12.9151 19.9639C13.1759 20.1484 13.3747 20.3886 13.5115 20.6845C13.6483 20.9771 13.7167 21.3334 13.7167 21.7534C13.7167 22.361 13.529 22.8715 13.1537 23.2851C12.7815 23.6987 12.1977 23.9054 11.4024 23.9054C9.99632 23.9054 9.21375 23.1054 9.05469 21.5052Z" fill="white"/>
<path d="M3.33398 23.7813V16.7859H5.06614L6.10639 21.5577L7.1371 16.7859H8.87403V23.7813H7.80038V18.2747L6.65992 23.7813H5.54332L4.41241 18.2747V23.7813H3.33398Z" fill="white"/>
<defs>
<clipPath id="clip0_6792_28391">
<path d="M0 8C0 3.58172 3.58172 0 8 0H32C36.4183 0 40 3.58172 40 8V32C40 36.4183 36.4183 40 32 40H8C3.58172 40 0 36.4183 0 32V8Z" fill="white"/>
</clipPath>
</defs>
</svg>
